<?xml version="1.0" encoding="UTF-8"?>
<svg viewBox="0 0 96.69 163.03" xmlns="http://www.w3.org/2000/svg">
<defs>
<style>.cls-1{fill:#fff;}</style>
</defs>
<title>B Corporation logo</title>
<g data-name="Layer 2">
<g data-name="Layer 1">
<path class="cls-1" d="M28.23,47h20c4.86,0,11.27,0,14.58,2a13.07,13.07,0,0,1,6.48,11.5A12.72,12.72,0,0,1,61.1,72.85V73c6.79,1.38,10.49,6.48,10.49,13.27,0,8.1-5.79,15.81-16.74,15.81H28.23Zm7.32,23.68H50.22c8.33,0,11.73-3,11.73-8.79,0-7.64-5.4-8.72-11.73-8.72H35.55Zm0,25.23H53.92c6.33,0,10.34-3.86,10.34-9.87,0-7.18-5.79-9.19-12-9.19H35.55Z"/>
<path class="cls-1" d="M90.33,74.57A41.91,41.91,0,1,1,48.42,32.68,41.91,41.91,0,0,1,90.33,74.57ZM48.42,26.28A48.27,48.27,0,1,0,96.69,74.55,48.27,48.27,0,0,0,48.42,26.28Z"/>
<rect class="cls-1" x=".26" y="132.99" width="96.33" height="6.33"/>
<path class="cls-1" d="M93.58,126h.34a.82.82,0,0,0,.27-.06.48.48,0,0,0,.2-.17.57.57,0,0,0,.07-.31.49.49,0,0,0-.06-.27.4.4,0,0,0-.17-.15A.62.62,0,0,0,94,125l-.27,0H93V126Zm.23-1.49a1.46,1.46,0,0,1,.89.23.93.93,0,0,1,.29.73.86.86,0,0,1-.25.67,1.25,1.25,0,0,1-.64.25l1,1.48H94.5l-.92-1.45H93v1.45H92.5v-3.36Zm-2.37,2.64a2.22,2.22,0,0,0,.5.79,2.34,2.34,0,0,0,.75.52,2.46,2.46,0,0,0,.94.18,2.34,2.34,0,0,0,.93-.18,2.24,2.24,0,0,0,1.25-1.31,2.55,2.55,0,0,0,0-1.93,2.58,2.58,0,0,0-.49-.78,2.48,2.48,0,0,0-.76-.51,2.34,2.34,0,0,0-.93-.19,2.47,2.47,0,0,0-.94.19,2.32,2.32,0,0,0-.75.51,2.27,2.27,0,0,0-.5.78,2.68,2.68,0,0,0,0,1.93M91,125.06a3,3,0,0,1,.62-.9,2.87,2.87,0,0,1,.92-.6,2.83,2.83,0,0,1,1.12-.22,2.84,2.84,0,0,1,2,.82,2.79,2.79,0,0,1,.62.9,2.74,2.74,0,0,1,.24,1.14,3,3,0,0,1-.86,2.06,2.76,2.76,0,0,1-.9.61,3.06,3.06,0,0,1-1.13.21,3,3,0,0,1-1.12-.21,2.74,2.74,0,0,1-.92-.61,2.82,2.82,0,0,1-.62-.92,2.5,2.5,0,0,1-.23-1.14,2.59,2.59,0,0,1,.23-1.14"/>
<path class="cls-1" d="M11.93,5.06a3.86,3.86,0,0,0-.85-1,4,4,0,0,0-1.16-.65,4.07,4.07,0,0,0-1.35-.23,4.53,4.53,0,0,0-2.2.5A4.09,4.09,0,0,0,4.91,5.06,5.72,5.72,0,0,0,4.09,7,9.5,9.5,0,0,0,3.83,9.2a8.87,8.87,0,0,0,.26,2.13,5.64,5.64,0,0,0,.82,1.87,4.15,4.15,0,0,0,1.46,1.33,4.53,4.53,0,0,0,2.2.5A3.55,3.55,0,0,0,11.31,14a5,5,0,0,0,1.21-2.83h3.71a8.83,8.83,0,0,1-.76,2.95,6.88,6.88,0,0,1-4,3.66,8.73,8.73,0,0,1-2.95.49,9,9,0,0,1-3.6-.7,7.55,7.55,0,0,1-2.7-1.92A8.41,8.41,0,0,1,.59,12.75,10.54,10.54,0,0,1,0,9.2,11,11,0,0,1,.59,5.57,8.74,8.74,0,0,1,2.27,2.66,7.62,7.62,0,0,1,5,.71,8.79,8.79,0,0,1,8.57,0a9,9,0,0,1,2.72.41,7.38,7.38,0,0,1,2.29,1.21,6.51,6.51,0,0,1,1.67,2,6.91,6.91,0,0,1,.83,2.68H12.37A3,3,0,0,0,11.93,5.06Z"/>
<path class="cls-1" d="M21.22,14.81a3.12,3.12,0,0,0,2.25.76,3.06,3.06,0,0,0,1.8-.53,2.14,2.14,0,0,0,.93-1.11h3.05A5.82,5.82,0,0,1,27,17.18a6.56,6.56,0,0,1-3.65,1,7.37,7.37,0,0,1-2.69-.47,5.5,5.5,0,0,1-2-1.36,5.87,5.87,0,0,1-1.28-2.1,7.43,7.43,0,0,1-.46-2.68,7.31,7.31,0,0,1,.47-2.63,6.37,6.37,0,0,1,1.31-2.12,6.23,6.23,0,0,1,2-1.4,6.6,6.6,0,0,1,2.63-.51,6.05,6.05,0,0,1,2.8.62,5.58,5.58,0,0,1,2,1.67,6.83,6.83,0,0,1,1.12,2.39,9.33,9.33,0,0,1,.24,2.81h-9.1A3.51,3.51,0,0,0,21.22,14.81Zm3.92-6.64a2.47,2.47,0,0,0-1.89-.68,3,3,0,0,0-1.38.28,2.6,2.6,0,0,0-.88.7,2.48,2.48,0,0,0-.46.88,3.47,3.47,0,0,0-.16.82H26A4,4,0,0,0,25.14,8.17Z"/>
<path class="cls-1" d="M34.32,5.22V7.56h0A4.29,4.29,0,0,1,35,6.48,4.54,4.54,0,0,1,36,5.62a4.87,4.87,0,0,1,1.15-.55,4.16,4.16,0,0,1,1.27-.19,2.77,2.77,0,0,1,.76.12V8.22c-.17,0-.36-.06-.59-.08a5.07,5.07,0,0,0-.66,0,3.73,3.73,0,0,0-1.61.32,2.82,2.82,0,0,0-1.06.86,3.46,3.46,0,0,0-.57,1.28,6.69,6.69,0,0,0-.17,1.59v5.68H31V5.22Z"/>
<path class="cls-1" d="M48.43,5.22V7.54H45.89v6.24A1.75,1.75,0,0,0,46.18,15a1.74,1.74,0,0,0,1.17.29,5,5,0,0,0,.56,0,4.34,4.34,0,0,0,.52-.07v2.68a7,7,0,0,1-1,.1L46.4,18a10.45,10.45,0,0,1-1.52-.11,3.73,3.73,0,0,1-1.27-.43,2.22,2.22,0,0,1-.87-.9A3.26,3.26,0,0,1,42.42,15V7.54H40.33V5.22h2.09V1.44h3.47V5.22Z"/>
<path class="cls-1" d="M50.44,3.27V.41h3.47V3.27Zm3.47,1.95V17.83H50.44V5.22Z"/>
<path class="cls-1" d="M55.28,7.54V5.22h2.08v-1a3.76,3.76,0,0,1,1-2.75A4.21,4.21,0,0,1,61.58.41c.31,0,.62,0,.92,0l.91.06V3.1A10.46,10.46,0,0,0,62.14,3a1.36,1.36,0,0,0-1,.32,1.6,1.6,0,0,0-.31,1.12v.75h2.39V7.54H60.82V17.83H57.36V7.54Z"/>
<path class="cls-1" d="M65.56,3.27V.41H69V3.27ZM69,5.22V17.83H65.56V5.22Z"/>
<path class="cls-1" d="M74.49,14.81a3.53,3.53,0,0,0,4.05.23,2.24,2.24,0,0,0,.93-1.11h3a5.82,5.82,0,0,1-2.25,3.25,6.62,6.62,0,0,1-3.66,1,7.31,7.31,0,0,1-2.68-.47,5.54,5.54,0,0,1-2-1.36,6,6,0,0,1-1.28-2.1,7.65,7.65,0,0,1-.45-2.68,7.53,7.53,0,0,1,.46-2.63A6.07,6.07,0,0,1,74,5.39a6.55,6.55,0,0,1,2.62-.51,6.06,6.06,0,0,1,2.81.62,5.67,5.67,0,0,1,2,1.67,7,7,0,0,1,1.11,2.39,9,9,0,0,1,.25,2.81h-9.1A3.46,3.46,0,0,0,74.49,14.81ZM78.4,8.17a2.44,2.44,0,0,0-1.89-.68,2.93,2.93,0,0,0-1.37.28,2.6,2.6,0,0,0-.88.7,2.51,2.51,0,0,0-.47.88,3.41,3.41,0,0,0-.15.82h5.63A4,4,0,0,0,78.4,8.17Z"/>
<path class="cls-1" d="M93.25,16.22a3.55,3.55,0,0,1-1.6,1.48,5.83,5.83,0,0,1-4.72-.1,5.09,5.09,0,0,1-1.77-1.48,7,7,0,0,1-1-2.16,9.33,9.33,0,0,1-.35-2.54A8.69,8.69,0,0,1,84.11,9a6.52,6.52,0,0,1,1-2.09,5.25,5.25,0,0,1,1.75-1.45,5.14,5.14,0,0,1,2.44-.55,4.88,4.88,0,0,1,2.13.48,3.63,3.63,0,0,1,1.6,1.4h0V.41h3.46V17.83H93.3V16.22ZM93.1,10a3.48,3.48,0,0,0-.5-1.27,2.87,2.87,0,0,0-.91-.89,2.65,2.65,0,0,0-1.41-.34,2.79,2.79,0,0,0-1.44.34,2.74,2.74,0,0,0-1,.9A4.35,4.35,0,0,0,87.38,10a7.34,7.34,0,0,0-.15,1.5A6.12,6.12,0,0,0,87.4,13a3.88,3.88,0,0,0,.54,1.3,2.94,2.94,0,0,0,1,.93,2.53,2.53,0,0,0,1.38.36,2.72,2.72,0,0,0,1.42-.35,2.59,2.59,0,0,0,.92-.91A4.08,4.08,0,0,0,93.1,13a7.44,7.44,0,0,0,.15-1.51A7.34,7.34,0,0,0,93.1,10Z"/>
<path class="cls-1" d="M8.71,151.76A2.65,2.65,0,0,0,6,149.61c-2.42,0-3.33,2.06-3.33,4.21s.91,4.11,3.33,4.11a2.76,2.76,0,0,0,2.78-2.75h2.62a5.18,5.18,0,0,1-5.4,5c-3.8,0-6-2.83-6-6.37s2.23-6.48,6-6.48a5,5,0,0,1,5.29,4.42Z"/>
<path class="cls-1" d="m17.06 150.78a4.68 4.68 0 0 1 0 9.36 4.68 4.68 0 0 1 0 -9.36zm0 7.52c1.66 0 2.16-1.42 2.16-2.83s-0.5-2.85-2.16-2.85-2.15 1.42-2.15 2.85 0.5 2.83 2.15 2.83z"/>
<path class="cls-1" d="M23.17,151h2.31v1.65h0a3.14,3.14,0,0,1,2.84-1.88,1.89,1.89,0,0,1,.53.08v2.27A4.67,4.67,0,0,0,28,153c-1.79,0-2.41,1.29-2.41,2.85v4H23.17Z"/>
<path class="cls-1" d="m29.84 151h2.32v1.13a3 3 0 0 1 2.64 -1.37c2.79 0 4 2.25 4 4.77s-1.31 4.59-3.9 4.59a3.13 3.13 0 0 1 -2.66 -1.34v4.22h-2.4zm6.6 4.47c0-1.41-0.57-2.87-2.13-2.87s-2.11 1.4-2.11 2.89 0.55 2.81 2.13 2.81 2.11-1.37 2.11-2.81z"/>
<path class="cls-1" d="m44.23 150.78a4.68 4.68 0 0 1 0 9.36 4.68 4.68 0 0 1 0 -9.36zm0 7.52c1.67 0 2.17-1.42 2.17-2.83s-0.5-2.85-2.17-2.85-2.15 1.42-2.15 2.85 0.5 2.83 2.15 2.83z"/>
<path class="cls-1" d="M50.34,151h2.32v1.65h0a3.13,3.13,0,0,1,2.83-1.88,2,2,0,0,1,.54.08v2.27a4.67,4.67,0,0,0-.88-.09c-1.79,0-2.41,1.29-2.41,2.85v4H50.34Z"/>
<path class="cls-1" d="M56.78,153.75c.14-2.28,2.18-3,4.18-3,1.77,0,3.9.39,3.9,2.52v4.63a4.41,4.41,0,0,0,.31,2H62.69a4,4,0,0,1-.17-.86,4,4,0,0,1-3,1.1c-1.68,0-3-.84-3-2.66,0-2,1.51-2.49,3-2.7s2.89-.17,2.89-1.17-.73-1.2-1.58-1.2-1.53.38-1.62,1.34Zm5.64,1.8a4.78,4.78,0,0,1-2,.52c-.75.15-1.44.41-1.44,1.31s.7,1.13,1.49,1.13a1.81,1.81,0,0,0,2-2Z"/>
<path class="cls-1" d="M69.79,151h1.78v1.63H69.79v4.4c0,.83.2,1,1,1a3.81,3.81,0,0,0,.75-.07v1.91a9.09,9.09,0,0,1-1.42.09c-1.5,0-2.8-.35-2.8-2.12v-5.24H65.87V151h1.48v-2.66h2.44Z"/>
<path class="cls-1" d="M75.85,149.65H73.41v-2h2.44ZM73.41,151h2.44v8.88H73.41Z"/>
<path class="cls-1" d="m82.08 150.78a4.68 4.68 0 1 1 -4.59 4.69 4.36 4.36 0 0 1 4.59 -4.69zm0 7.52c1.67 0 2.16-1.42 2.16-2.83s-0.49-2.85-2.16-2.85-2.15 1.42-2.15 2.85 0.5 2.83 2.15 2.83z"/>
<path class="cls-1" d="M88.26,151h2.32v1.24h0a3.17,3.17,0,0,1,2.72-1.48c2.59,0,3.24,1.46,3.24,3.66v5.46H94.15v-5c0-1.46-.43-2.19-1.56-2.19-1.32,0-1.89.74-1.89,2.55v4.65H88.26Z"/>
</g>
</g>
</svg>
